{"scene":0,"scenes":[{"nodes":[0]}],"asset":{"version":"2.0","generator":"https://github.com/mikedh/trimesh"},"accessors":[{"componentType":5125,"type":"SCALAR","bufferView":0,"count":3,"max":[2],"min":[0]},{"componentType":5126,"type":"VEC3","byteOffset":0,"bufferView":1,"count":3,"max":[1.0,1.0,0.0],"min":[0.0,0.0,0.0]},{"componentType":5126,"type":"VEC2","byteOffset":0,"bufferView":2,"count":3,"max":[1.0,1.0],"min":[0.0,0.0]},{"componentType":5126,"count":3,"type":"VEC3","byteOffset":0,"bufferView":3,"max":[0.0,0.0,1.0],"min":[0.0,0.0,1.0]}],"meshes":[{"name":"probe.obj","extras":{},"primitives":[{"attributes":{"POSITION":1,"TEXCOORD_0":2,"NORMAL":3},"indices":0,"mode":4,"material":0}]}],"materials":[{"pbrMetallicRoughness":{"baseColorFactor":[1.0,1.0,1.0,1.0],"roughnessFactor":0.9036020036098448},"doubleSided":false}],"nodes":[{"name":"world","children":[1]},{"name":"probe.obj","mesh":0}],"buffers":[{"uri":"gltf_buffer_0.bin","byteLength":12},{"uri":"gltf_buffer_1.bin","byteLength":36},{"uri":"gltf_buffer_2.bin","byteLength":24},{"uri":"gltf_buffer_3.bin","byteLength":36}],"bufferViews":[{"buffer":0,"byteOffset":0,"byteLength":12},{"buffer":1,"byteOffset":0,"byteLength":36},{"buffer":2,"byteOffset":0,"byteLength":24},{"buffer":3,"byteOffset":0,"byteLength":36}]}